PathFileType	4	(X/Y/Z)	/Users/itak/Documents/Research/Walk-IL/dataset/trc/00556_00009.trc
DataRate	CameraRate	NumFrames	NumMarkers	Units	OrigDataRate	OrigDataStartFrame	OrigNumFrames
100.000000	100.000000	4	55	mm	100.000000	198	318
Frame#	Time	RPSI			LPSI			L3			STRN			T10			C7			CLAV			RBAK			LBAK			LSHO			LUPA			LAEL			LAOL			LWTS			LWPS			LFRA			LIFD			LHPS			LHTS			RSHO			RUPA			RAEL			RAOL			RWTS			RWPS			RFRA			RIFD			RHTS			RHPS			RBHD			LFHD			RFHD			LBHD			LHIP			RHIP			RASI			LASI			LKNE			LTHI			LANK			LTIP			LTOE			LMT1			LMT5			LHEE			RKNE			RTHI			RANK			RTIP			RTOE			RMT1			RMT5			RHEE			*53			*54			
		X1	Y1	Z1	X2	Y2	Z2	X3	Y3	Z3	X4	Y4	Z4	X5	Y5	Z5	X6	Y6	Z6	X7	Y7	Z7	X8	Y8	Z8	X9	Y9	Z9	X10	Y10	Z10	X11	Y11	Z11	X12	Y12	Z12	X13	Y13	Z13	X14	Y14	Z14	X15	Y15	Z15	X16	Y16	Z16	X17	Y17	Z17	X18	Y18	Z18	X19	Y19	Z19	X20	Y20	Z20	X21	Y21	Z21	X22	Y22	Z22	X23	Y23	Z23	X24	Y24	Z24	X25	Y25	Z25	X26	Y26	Z26	X27	Y27	Z27	X28	Y28	Z28	X29	Y29	Z29	X30	Y30	Z30	X31	Y31	Z31	X32	Y32	Z32	X33	Y33	Z33	X34	Y34	Z34	X35	Y35	Z35	X36	Y36	Z36	X37	Y37	Z37	X38	Y38	Z38	X39	Y39	Z39	X40	Y40	Z40	X41	Y41	Z41	X42	Y42	Z42	X43	Y43	Z43	X44	Y44	Z44	X45	Y45	Z45	X46	Y46	Z46	X47	Y47	Z47	X48	Y48	Z48	X49	Y49	Z49	X50	Y50	Z50	X51	Y51	Z51	X52	Y52	Z52	X53	Y53	Z53	X54	Y54	Z54	X55	Y55	Z55	

199	1.98	419.1001586914062	938.4117431640625	298.0021362304688	445.6975708007812	957.6419677734375	170.8907928466797	450.4099426269531	1053.469360351562	223.3551483154297	687.55517578125	1219.73876953125	304.3018188476562	460.9403381347656	1176.809326171875	214.3255462646484	527.6825561523438	1445.739868164062	254.3913879394531	678.7922973632812	1330.637451171875	308.9880065917969	419.9004211425781	1327.203979492188	293.9689331054688	522.4082641601562	1405.492919921875	151.0630645751953	648.2471923828125	1427.363525390625	128.0946502685547	687.5786743164062	1319.848876953125	38.05639266967773	754.96923828125	1138.90234375	6.986713886260986	679.0697021484375	1073.138793945312	-13.41183471679688	865.9159545898438	1105.923706054688	223.3284454345703	924.6528930664062	1053.403686523438	185.5286254882812	811.6553344726562	1111.958618164062	57.38046264648438	940.2925415039062	1040.0888671875	341.5127868652344	954.8561401367188	1043.173828125	237.2166290283203	929.523681640625	1097.829711914062	270.4883422851562	514.52490234375	1407.707763671875	413.0614318847656	452.1327514648438	1362.604125976562	461.6728820800781	316.2445678710938	1113.763549804688	491.7841491699219	273.8220520019531	1102.283203125	445.1289978027344	454.8591918945312	909.8717651367188	534.6162719726562	382.48388671875	878.1101684570312	556.8792724609375	317.950439453125	1057.8505859375	504.0063171386719	495.932373046875	757.6242065429688	584.0333862304688	480.435302734375	839.1426391601562	588.8792114257812	409.3699035644531	817.2827758789062	587.1373901367188	640.8806762695312	1610.271118164062	374.234619140625	815.0328979492188	1583.8828125	263.4597473144531	776.056884765625	1581.776489257812	403.1731872558594	692.1581420898438	1609.573120117188	217.1261596679688	586.8025512695312	886.8441162109375	59.41527557373047	529.597900390625	877.28271484375	432.3265380859375	618.49462890625	910.2789306640625	390.8817138671875	660.408935546875	907.7698364257812	119.5985107421875	557.0681762695312	432.1034545898438	126.9169998168945	581.474365234375	602.9732055664062	90.15431976318359	190.8733673095703	104.3985443115234	83.78734588623047	352.4625549316406	268.8197631835938	96.93831634521484	362.5448303222656	36.92853164672852	173.1332397460938	295.7138671875	58.20742416381836	196.7320861816406	295.2049255371094	46.74696350097656	91.68026733398438	129.1616668701172	148.7256317138672	125.2600402832031	780.534912109375	522.8648071289062	490.6917114257812	613.3397216796875	760.9400634765625	461.9583740234375	928.8006591796875	39.774658203125	461.2768859863281	853.5895385742188	392.6565856933594	495.7333984375	1126.8408203125	103.3234405517578	520.5164794921875	1085.43359375	112.6405715942383	459.1743469238281	1043.230224609375	44.57244491577148	525.2625732421875	898.6251831054688	53.72754287719727	389.7125244140625	nan	nan	nan	nan	nan	nan	
200	1.99	443.3185119628906	937.7630004882812	305.4665832519531	469.5164184570312	957.6828002929688	178.3693542480469	473.5113220214844	1052.901977539062	230.8080596923828	708.718017578125	1221.158325195312	310.7517700195312	482.772705078125	1175.985107421875	221.1863708496094	546.888916015625	1445.2890625	260.4118041992188	698.8743896484375	1331.930908203125	315.2608032226562	440.4227294921875	1326.017456054688	299.7048645019531	541.4810791015625	1405.015991210938	157.4860687255859	666.9215698242188	1427.698486328125	133.9801788330078	705.4241333007812	1320.572021484375	43.04137420654297	772.06005859375	1139.871215820312	10.56550598144531	696.0239868164062	1074.098266601562	-9.559027671813965	881.6253662109375	1108.22802734375	228.0112915039062	940.8640747070312	1056.028564453125	190.5699615478516	828.2570190429688	1113.474975585938	61.49286270141602	954.880615234375	1042.355834960938	346.4216003417969	970.817138671875	1045.862426757812	242.4570922851562	944.990966796875	1100.292358398438	275.7198181152344	533.78369140625	1407.915405273438	418.7922058105469	470.9600830078125	1363.124389648438	466.8910522460938	334.18701171875	1114.212036132812	493.9432373046875	292.6503295898438	1102.858520507812	446.38720703125	471.7388916015625	910.2637329101562	540.0746459960938	398.7496948242188	878.5069580078125	560.5985717773438	335.4788208007812	1058.319213867188	506.2376098632812	511.4249877929688	758.2837524414062	591.023681640625	495.833984375	839.7974243164062	595.3894653320312	424.8052368164062	817.8961791992188	591.8273315429688	659.0944213867188	1610.729370117188	380.0498352050781	833.2032470703125	1585.132934570312	269.1345825195312	794.3523559570312	1583.005859375	408.7651977539062	710.17333984375	1610.044921875	222.8835754394531	609.8800048828125	887.2960205078125	66.09523773193359	554.4509887695312	876.56201171875	439.3081970214844	642.9517822265625	910.3374633789062	397.5567321777344	683.42529296875	908.1080322265625	126.1906280517578	581.9432373046875	431.1183166503906	129.9049530029297	605.4072875976562	602.7918090820312	94.83450317382812	202.0512847900391	118.9065628051758	84.15303039550781	371.6477966308594	276.4701843261719	98.9188232421875	364.4977722167969	36.11628341674805	172.8382720947266	300.9025573730469	62.53309631347656	196.5438385009766	300.0326538085938	51.60590744018555	91.57099151611328	144.9540710449219	168.2118225097656	126.072380065918	804.0603637695312	519.7462158203125	494.0372314453125	638.10009765625	758.7788696289062	468.7130737304688	946.449462890625	37.666259765625	460.506591796875	876.30078125	389.2244873046875	497.983154296875	1147.581909179688	95.27964019775391	518.9445190429688	1104.761840820312	106.2748107910156	458.2049865722656	1061.11865234375	40.80451965332031	524.43408203125	916.6106567382812	52.13938140869141	389.1672668457031	nan	nan	nan	nan	nan	nan	
201	2	467.07763671875	936.4659423828125	312.7066040039062	492.8170776367188	956.7838745117188	185.5405120849609	496.2488708496094	1051.695922851562	238.1567535400391	729.8572387695312	1221.623046875	317.0481872558594	504.2161865234375	1174.658081054688	228.2548675537109	566.3599243164062	1444.232299804688	266.5387878417969	719.1436157226562	1332.297607421875	321.409423828125	461.0247497558594	1324.3720703125	305.8194274902344	560.7395629882812	1403.849243164062	164.0159606933594	685.7979736328125	1427.174194335938	139.7862091064453	723.1337280273438	1320.300903320312	47.92911529541016	788.47412109375	1139.760864257812	13.79621601104736	712.1036987304688	1074.108154296875	-5.791858673095703	897.068359375	1109.373168945312	232.1448669433594	956.6458740234375	1057.390380859375	194.9239959716797	844.2467651367188	1113.825073242188	65.17333221435547	969.47021484375	1043.373779296875	350.6338806152344	986.4708251953125	1047.25830078125	246.9117126464844	960.3123779296875	1101.516845703125	280.2240295410156	553.512939453125	1407.421997070312	424.7376403808594	490.3898010253906	1362.839599609375	472.4393310546875	353.0071411132812	1113.753051757812	496.7648315429688	312.276611328125	1102.544311523438	448.4178161621094	489.617431640625	909.7518310546875	545.5963134765625	416.1332397460938	877.9747314453125	564.5701904296875	353.9685668945312	1057.863525390625	509.0716552734375	528.07958984375	758.0768432617188	597.9942626953125	512.3726806640625	839.578369140625	601.8383178710938	441.4239196777344	817.6057739257812	596.6721801757812	677.4562377929688	1610.43798828125	385.789306640625	851.52392578125	1585.822509765625	274.7138671875	812.8036499023438	1583.674438476562	414.2557373046875	728.2982788085938	1609.761474609375	228.5567626953125	632.80078125	886.7611694335938	72.72132110595703	578.7337646484375	875.42041015625	446.2624816894531	666.907470703125	909.9025268554688	404.2201232910156	706.094970703125	907.6829223632812	132.7679290771484	609.5208740234375	429.0886840820312	133.3789215087891	631.0587768554688	601.6068725585938	99.86721801757812	215.8964233398438	134.5648803710938	84.97500610351562	393.661865234375	283.7981872558594	101.4181747436523	368.0286865234375	35.3586311340332	172.27783203125	308.0649719238281	67.56546783447266	196.3181457519531	306.6899108886719	57.91122436523438	91.36490631103516	163.6958160400391	188.2613525390625	127.5982055664062	827.8292236328125	516.8475952148438	497.4732971191406	662.7396850585938	756.9238891601562	475.7236938476562	958.9645385742188	35.4306526184082	458.3157348632812	898.3351440429688	385.207763671875	499.6621704101562	1164.017578125	86.09138488769531	514.6202392578125	1119.889892578125	97.75932312011719	454.3199462890625	1073.948974609375	37.85037612915039	522.2021484375	929.5263671875	49.17471694946289	387.0990295410156	nan	nan	nan	nan	nan	nan	
202	2.01	490.2246704101562	934.5097045898438	319.6683959960938	515.4935913085938	954.8286743164062	192.334228515625	518.5291137695312	1049.835693359375	245.3144683837891	750.9470825195312	1221.077270507812	323.1148376464844	525.2044067382812	1172.83544921875	235.4459838867188	586.0845947265625	1442.591552734375	272.7659912109375	739.5929565429688	1331.6884765625	327.386962890625	481.66748046875	1322.2861328125	312.2877807617188	580.176025390625	1402.031860351562	170.6080474853516	704.8941040039062	1425.81982421875	145.5108184814453	740.788818359375	1319.064331054688	52.75944900512695	804.2440185546875	1138.619506835938	16.75318145751953	727.363037109375	1073.23095703125	-2.091442823410034	912.3326416015625	1109.314453125	235.7354888916016	972.0528564453125	1057.412475585938	198.5939178466797	859.6846923828125	1113.017944335938	68.46006011962891	984.2059326171875	1043.125244140625	354.1610412597656	1001.884643554688	1047.292602539062	250.5721282958984	975.5853271484375	1101.450317382812	283.9865112304688	573.7142333984375	1406.16748046875	430.8986511230469	510.4483642578125	1361.666748046875	478.3511047363281	372.6870422363281	1112.34228515625	500.3456420898438	332.6261901855469	1101.301513671875	451.3486633300781	508.5306091308594	908.3092041015625	551.178466796875	434.6725769042969	876.4664306640625	568.83984375	373.4027404785156	1056.442138671875	512.6022338867188	545.978759765625	756.955810546875	604.8950805664062	530.1367797851562	838.4285888671875	608.1820678710938	459.2954711914062	816.357666015625	601.6876220703125	696.0101928710938	1609.38818359375	391.4407653808594	870.0462646484375	1585.928100585938	280.1848449707031	831.4666137695312	1583.74658203125	419.6445617675781	746.5828247070312	1608.727661132812	234.1418304443359	655.5344848632812	885.1162719726562	79.26032257080078	602.324951171875	873.900390625	453.1502990722656	690.2149658203125	908.9977416992188	410.8182067871094	728.3919677734375	906.4092407226562	139.3007659912109	639.478515625	426.1024169921875	137.3591613769531	658.2011108398438	599.4147338867188	105.2287368774414	232.6452331542969	150.9878997802734	86.40240478515625	418.4151306152344	290.6321105957031	104.5018768310547	373.8170471191406	34.91466903686523	171.3715667724609	317.7984313964844	73.28340911865234	196.0688323974609	315.7471008300781	65.69293975830078	91.12943267822266	185.3838043212891	208.2755432128906	130.0348663330078	851.8562622070312	514.197265625	500.9404602050781	687.2109985351562	755.352783203125	482.8521118164062	967.2949829101562	33.52070617675781	455.1302490234375	919.8666381835938	380.840087890625	500.7950134277344	1176.749145507812	76.56390380859375	508.3847045898438	1131.530517578125	87.92298889160156	448.2476196289062	1082.690673828125	36.0753059387207	519.0325317382812	938.2987670898438	45.20323181152344	383.9023132324219	nan	nan	nan	nan	nan	nan	
